<svg version="1.1" id="Layer_1" xmlns="http://www.w3.org/2000/svg" xmlns:xlink="http://www.w3.org/1999/xlink" x="0px" y="0px" width="1000" height="1000" viewBox="0 0 1000 1000" style="enable-background:new 0 0 1000 1000;" xml:space="preserve">
<g fill="#ffffff">
	<path d="M180.47,393.37c101.09,140.99,202.17,281.97,303.26,422.96h-84.69C326.1,711.92,253.16,607.49,180.22,503.08&#xA;&#x9;&#x9;C180.3,466.52,180.39,429.93,180.47,393.37z"/>
	<polygon points="180.47,183.67 260.73,183.67 714.72,816.33 635.49,816.33"/>
	<polygon points="797.94,932.23 346.7,932.23 67.42,547.49 67.42,67.77 177.62,67.77 230.27,141.15 137.95,141.15 137.95,517.58 &#xA;&#x9;&#x9;376.91,858.85 745.29,858.85"/>
	<path d="M556.71,526.45l-48.29-66.98c3-0.1,6-0.19,9.02-0.29c11.66-0.84,37.84-4.49,60.33-24.48&#xA;&#x9;&#x9;c40.87-36.31,31.74-92.91,30.65-99.04c-1.64-9.1-5.62-29.94-22.8-49.15c-21.48-24.06-49.03-29.33-57.71-30.65&#xA;&#x9;&#x9;c-55.91-0.67-111.81-1.34-167.72-2.01l-50.58-70.17H536.7c14.56,3.02,71.01,16.55,110.2,70.05c29.62,40.47,33.48,82.07,34.19,96.9&#xA;&#x9;&#x9;c0.76,15.9,0.29,49.97-17.1,85.51C637.25,490.73,586.67,515.84,556.71,526.45z"/>
	<path d="M932.58,932.23h-83.35L583.55,563.67l-0.57-0.78c27.19-11.64,86.07-43.01,119.01-111.33&#xA;&#x9;&#x9;c7.01-14.56,33.38-71.1,18.04-139.65c-8.77-39.23-27.71-66.88-36.08-78.86c-8.81-12.59-27.44-38.66-61.76-60.79&#xA;&#x9;&#x9;c-31.64-20.39-61.95-27.98-80.75-31.11H278.96l-52.91-73.38h315.39c122.09,17.79,220.4,108.52,246.03,226.1&#xA;&#x9;&#x9;c23.47,107.56-17.6,220.63-105.44,290.67C765.55,700.45,849.07,816.33,932.58,932.23z"/>
</g>
</svg>
